<svg data-v-fde0c5aa="" xmlns="http://www.w3.org/2000/svg" viewBox="0 0 300 300" class="iconLeft"><!----><defs data-v-fde0c5aa=""><!----></defs><rect data-v-fde0c5aa="" fill="#00242B" x="0" y="0" width="300px" height="300px" class="logo-background-square"></rect><defs data-v-fde0c5aa=""><!----></defs><g data-v-fde0c5aa="" id="2518ec2b-a362-49d0-8505-3c4cb58a6f60" fill="#7DE38D" transform="matrix(4.100633757932814,0,0,4.100633757932814,117.0519009071732,127.40550742185484)"><path d="M4.13 6.37L3.18 6.37L3.18 8.20L3.29 10.04L4.16 10.20L4.16 10.68L2.31 10.64L0.46 10.68L0.46 10.20L1.32 10.04L1.43 8.20L1.43 3.82L1.32 1.98L0.46 1.83L0.46 1.35L2.31 1.38L5.64 1.31L5.64 1.31Q7.03 1.31 7.82 1.90L7.82 1.90L7.82 1.90Q8.61 2.49 8.61 3.59L8.61 3.59L8.61 3.59Q8.61 4.43 8.06 5.11L8.06 5.11L8.06 5.11Q7.51 5.79 5.93 6.15L5.93 6.15L9.29 10.04L9.83 10.20L9.84 10.68L9.84 10.68Q9.54 10.68 9.27 10.68L9.27 10.68L9.27 10.68Q9.00 10.68 8.65 10.71L8.65 10.71L8.65 10.71Q8.40 10.71 8.10 10.75L8.10 10.75L8.10 10.75Q7.79 10.79 7.46 10.87L7.46 10.87L7.46 10.87Q6.05 8.88 5.52 8.19L5.52 8.19L4.13 6.37ZM3.19 2.36L3.19 5.42L4.22 5.52L4.22 5.52Q5.29 5.52 5.99 5.00L5.99 5.00L5.99 5.00Q6.70 4.48 6.70 3.71L6.70 3.71L6.70 3.71Q6.70 2.99 6.12 2.58L6.12 2.58L6.12 2.58Q5.54 2.17 4.55 2.17L4.55 2.17L4.55 2.17Q4.38 2.17 4.21 2.18L4.21 2.18L4.21 2.18Q4.03 2.19 3.84 2.23L3.84 2.23L3.84 2.23Q3.44 2.26 3.19 2.36L3.19 2.36ZM16.22 8.42L16.74 8.92L16.74 8.92Q16.49 9.28 16.16 9.60L16.16 9.60L16.16 9.60Q15.82 9.93 15.35 10.23L15.35 10.23L15.35 10.23Q14.41 10.84 13.34 10.84L13.34 10.84L13.34 10.84Q11.63 10.84 10.65 9.85L10.65 9.85L10.65 9.85Q9.67 8.86 9.67 7.11L9.67 7.11L9.67 7.11Q9.67 5.50 10.83 4.36L10.83 4.36L10.83 4.36Q11.99 3.22 13.62 3.22L13.62 3.22L13.62 3.22Q14.97 3.22 15.79 4.02L15.79 4.02L15.79 4.02Q16.62 4.83 16.62 6.08L16.62 6.08L16.62 6.49L11.51 6.49L11.51 6.49Q11.51 8.03 12.06 8.84L12.06 8.84L12.06 8.84Q12.62 9.65 13.81 9.65L13.81 9.65L13.81 9.65Q14.63 9.65 15.27 9.21L15.27 9.21L15.27 9.21Q15.91 8.77 16.22 8.42L16.22 8.42ZM11.56 5.79L11.56 5.79L14.86 5.64L14.86 5.48L14.86 5.48Q14.86 4.77 14.52 4.38L14.52 4.38L14.52 4.38Q14.19 4.00 13.51 4.00L13.51 4.00L13.51 4.00Q12.62 4.00 12.05 4.67L12.05 4.67L12.05 4.67Q11.71 5.10 11.56 5.79ZM17.37 1.12L17.37 1.12L17.37 1.12Q17.37 0.73 17.66 0.44L17.66 0.44L17.66 0.44Q17.94 0.15 18.34 0.15L18.34 0.15L18.34 0.15Q18.73 0.15 19.02 0.44L19.02 0.44L19.02 0.44Q19.30 0.73 19.30 1.12L19.30 1.12L19.30 1.12Q19.30 1.53 19.02 1.81L19.02 1.81L19.02 1.81Q18.73 2.10 18.34 2.10L18.34 2.10L18.34 2.10Q17.94 2.10 17.66 1.81L17.66 1.81L17.66 1.81Q17.37 1.53 17.37 1.12ZM19.16 5.09L19.16 7.94L19.16 7.94Q19.16 8.35 19.17 8.72L19.17 8.72L19.17 8.72Q19.18 9.08 19.23 9.53L19.23 9.53L19.23 9.53Q19.28 9.98 19.30 10.04L19.30 10.04L20.05 10.20L20.05 10.68L18.34 10.64L16.62 10.68L16.62 10.20L17.37 10.04L17.44 9.39L17.44 9.39Q17.47 9.09 17.49 8.70L17.49 8.70L17.49 8.70Q17.51 8.32 17.51 7.94L17.51 7.94L17.51 6.41L17.51 6.21L17.51 6.03L17.51 5.89L17.51 5.89Q17.51 5.35 17.47 4.98L17.47 4.98L17.47 4.98Q17.47 4.72 17.44 4.52L17.44 4.52L17.44 4.52Q17.42 4.31 17.38 4.21L17.38 4.21L16.50 4.04L16.50 3.55L16.50 3.55Q16.82 3.51 17.09 3.49L17.09 3.49L17.09 3.49Q17.36 3.46 17.59 3.41L17.59 3.41L18.68 3.17L19.29 3.17L19.18 4.22L19.16 5.09ZM26.15 8.72L26.15 8.72L26.68 9.31L26.68 9.31Q26.24 9.85 25.43 10.38L25.43 10.38L25.43 10.38Q24.63 10.84 23.56 10.84L23.56 10.84L23.56 10.84Q21.88 10.84 20.84 9.90L20.84 9.90L20.84 9.90Q19.80 8.95 19.80 7.34L19.80 7.34L19.80 7.34Q19.80 5.58 21.07 4.40L21.07 4.40L21.07 4.40Q22.34 3.22 24.25 3.22L24.25 3.22L24.25 3.22Q25.00 3.22 25.61 3.38L25.61 3.38L25.61 3.38Q26.13 3.50 26.39 3.62L26.39 3.62L26.39 3.62Q26.34 3.74 26.24 4.02L26.24 4.02L26.24 4.02Q26.14 4.29 26.08 4.49L26.08 4.49L25.86 5.35L25.35 5.28L25.35 4.58L25.35 4.58Q25.33 4.54 25.18 4.46L25.18 4.46L25.18 4.46Q25.03 4.38 24.84 4.30L24.84 4.30L24.84 4.30Q24.38 4.09 23.87 4.09L23.87 4.09L23.87 4.09Q22.81 4.09 22.18 4.81L22.18 4.81L22.18 4.81Q21.55 5.53 21.55 6.73L21.55 6.73L21.55 6.73Q21.55 8.03 22.25 8.84L22.25 8.84L22.25 8.84Q22.94 9.65 24.08 9.65L24.08 9.65L24.08 9.65Q24.97 9.65 25.46 9.28L25.46 9.28L25.46 9.28Q25.61 9.17 25.88 8.95L25.88 8.95L25.88 8.95Q26.01 8.84 26.15 8.72ZM33.97 5.43L33.97 7.94L33.97 7.94Q33.97 8.35 33.98 8.72L33.98 8.72L33.98 8.72Q33.99 9.08 34.04 9.53L34.04 9.53L34.04 9.53Q34.09 9.98 34.11 10.04L34.11 10.04L34.86 10.20L34.86 10.68L33.16 10.64L32.35 10.68L32.35 10.20L32.34 10.04L32.34 6.43L32.34 6.43Q32.34 5.40 32.03 4.90L32.03 4.90L32.03 4.90Q31.75 4.40 31.00 4.40L31.00 4.40L31.00 4.40Q30.25 4.40 29.79 5.04L29.79 5.04L29.79 5.04Q29.37 5.67 29.37 6.73L29.37 6.73L29.37 7.94L29.37 7.94Q29.37 8.42 29.38 8.75L29.38 8.75L29.38 8.75Q29.39 9.08 29.44 9.39L29.44 9.39L29.51 10.04L30.26 10.20L30.26 10.68L28.56 10.64L26.84 10.68L26.84 10.20L27.59 10.04L27.67 9.39L27.67 9.39Q27.69 9.09 27.71 8.70L27.71 8.70L27.71 8.70Q27.74 8.32 27.74 7.94L27.74 7.94L27.74 3.42L27.74 3.22L27.74 3.05L27.74 2.91L27.74 2.91Q27.74 2.36 27.69 1.99L27.69 1.99L27.69 1.99Q27.69 1.73 27.67 1.53L27.67 1.53L27.67 1.53Q27.64 1.32 27.61 1.22L27.61 1.22L26.73 1.05L26.73 0.56L28.88 0.20L29.50 0.20L29.39 1.25L29.37 2.12L29.37 4.48L29.37 4.48Q29.91 3.84 30.53 3.53L30.53 3.53L30.53 3.53Q31.15 3.22 31.85 3.22L31.85 3.22L31.85 3.22Q32.81 3.22 33.39 3.82L33.39 3.82L33.39 3.82Q33.97 4.43 33.97 5.43L33.97 5.43Z"></path></g><defs data-v-fde0c5aa=""><!----></defs><g data-v-fde0c5aa="" id="cb68e976-8705-4426-832f-f975871fd1a2" stroke="none" fill="#7DE38D" transform="matrix(1.0989698745006777,0,0,1.0989698745006777,40,117.03090376497967)"><ellipse cx="30" cy="30" rx="5.5" ry="5.4"></ellipse><path d="M60 30C60 13.5 46.5 0 30 0S0 13.5 0 30s13.4 30 30 30c5.4 0 10.5-1.5 14.9-4 .9.6 1.9.9 3 .9 3 0 5.5-2.4 5.5-5.4 0-.8-.2-1.5-.5-2.2 4.4-5.2 7.1-12 7.1-19.3zM2.8 30C2.8 15 15 2.8 30 2.8S57.2 15 57.2 30c0 6.5-2.3 12.4-6.1 17.1-.9-.7-2-1.1-3.2-1.1-3 0-5.5 2.4-5.5 5.4 0 .9.2 1.7.6 2.4-3.9 2.1-8.3 3.3-13.1 3.3C15 57.2 2.8 45 2.8 30z"></path></g><!----></svg>